<?xml version="1.0" encoding="UTF-8"?>
<svg id="Layer_1" data-name="Layer 1" xmlns="http://www.w3.org/2000/svg" viewBox="0 0 2051.61 437.5">
  <defs>
    <style>
      .cls-1 {
        fill: #002e99;
      }

      .cls-2 {
        fill: #1a1a1a;
      }
    </style>
  </defs>
  <g>
    <path class="cls-2" d="M491.77,136.85h152.11v23.4l-103.73,150.85h105.31v33.84h-153.7v-23.4l104.04-150.85h-104.04v-33.84Z"/>
    <path class="cls-2" d="M688.48,240.89l-19.92-23.4c2.32-2.74,5.58-5.64,9.8-8.7,4.21-3.05,9.12-5.95,14.71-8.7,5.58-2.74,11.91-5.01,18.98-6.8,7.06-1.79,14.49-2.69,22.29-2.69,9.49,0,18.18,1.27,26.09,3.8,7.91,2.53,14.81,6.32,20.71,11.38,5.9,5.06,10.49,11.38,13.76,18.97,3.27,7.59,4.9,16.34,4.9,26.25v93.93h-30.04l-2.21-21.19c-2.96,3.79-6.17,7.17-9.65,10.12-3.48,2.96-7.27,5.48-11.38,7.59-4.11,2.11-8.65,3.69-13.6,4.74-4.96,1.05-10.28,1.58-15.97,1.58-7.59,0-14.55-1.16-20.87-3.48s-11.7-5.53-16.13-9.65-7.86-8.96-10.28-14.55c-2.43-5.58-3.64-11.65-3.64-18.18s1.42-12.97,4.27-18.66c2.85-5.69,7.06-10.59,12.65-14.71,5.58-4.11,12.54-7.32,20.87-9.65,8.33-2.32,17.97-3.48,28.94-3.48h33.52v-2.85c0-10.33-2.74-18.13-8.22-23.4-5.49-5.27-13.71-7.91-24.67-7.91-5.06,0-9.8.63-14.23,1.9-4.43,1.26-8.59,2.85-12.49,4.74-3.9,1.9-7.38,4.01-10.44,6.33-3.06,2.32-5.64,4.54-7.75,6.64ZM766.28,278.84h-30.68c-11.6-.21-20.08,1.74-25.46,5.85-5.38,4.11-8.06,9.23-8.06,15.34,0,2.53.52,5.01,1.58,7.43,1.05,2.43,2.63,4.59,4.74,6.48,2.1,1.9,4.69,3.43,7.75,4.59,3.05,1.16,6.69,1.74,10.91,1.74,5.06,0,9.96-.89,14.71-2.69,4.74-1.79,8.9-4.37,12.49-7.75,3.58-3.37,6.48-7.43,8.7-12.18,2.21-4.74,3.32-9.96,3.32-15.65v-3.16Z"/>
    <path class="cls-2" d="M864.95,196.3l1.26,19.61c6.33-6.96,13.96-12.44,22.93-16.44,8.96-4,18.82-6.01,29.57-6.01s21.19,2.06,30.68,6.17,17.71,9.7,24.67,16.76c6.96,7.07,12.44,15.39,16.44,24.98,4,9.6,6.01,19.77,6.01,30.52s-2.01,20.93-6.01,30.52c-4.01,9.6-9.49,17.92-16.44,24.98-6.96,7.07-15.18,12.65-24.67,16.76-9.49,4.11-19.72,6.17-30.68,6.17-9.91,0-19.03-1.74-27.36-5.22-8.33-3.48-15.55-8.27-21.66-14.39l-.32,93.29h-34.47v-227.7h30.04ZM957.92,253.54c-2.53-5.69-5.91-10.75-10.12-15.18-4.22-4.43-9.12-7.85-14.71-10.28-5.59-2.42-11.65-3.64-18.18-3.64-7.17,0-13.6,1.22-19.29,3.64-5.69,2.43-10.59,5.8-14.71,10.12-4.11,4.32-7.27,9.38-9.49,15.18-2.21,5.8-3.32,11.97-3.32,18.5s1.16,12.97,3.48,18.66c2.32,5.69,5.53,10.7,9.65,15.02,4.11,4.32,9.01,7.7,14.71,10.12,5.69,2.43,12.02,3.64,18.97,3.64,6.53,0,12.6-1.21,18.18-3.64,5.58-2.42,10.49-5.85,14.71-10.28,4.21-4.43,7.59-9.49,10.12-15.18s3.79-11.8,3.79-18.34-1.26-12.65-3.79-18.34Z"/>
    <path class="cls-2" d="M1052.48,196.3l1.26,19.61c6.33-6.96,13.96-12.44,22.93-16.44,8.96-4,18.82-6.01,29.57-6.01s21.19,2.06,30.68,6.17,17.71,9.7,24.67,16.76c6.96,7.07,12.44,15.39,16.44,24.98,4,9.6,6.01,19.77,6.01,30.52s-2.01,20.93-6.01,30.52c-4.01,9.6-9.49,17.92-16.44,24.98-6.96,7.07-15.18,12.65-24.67,16.76-9.49,4.11-19.72,6.17-30.68,6.17-9.91,0-19.03-1.74-27.36-5.22-8.33-3.48-15.55-8.27-21.66-14.39l-.32,93.29h-34.47v-227.7h30.04ZM1145.46,253.54c-2.53-5.69-5.91-10.75-10.12-15.18-4.22-4.43-9.12-7.85-14.71-10.28-5.59-2.42-11.65-3.64-18.18-3.64-7.17,0-13.6,1.22-19.29,3.64-5.69,2.43-10.59,5.8-14.71,10.12-4.11,4.32-7.27,9.38-9.49,15.18-2.21,5.8-3.32,11.97-3.32,18.5s1.16,12.97,3.48,18.66c2.32,5.69,5.53,10.7,9.65,15.02,4.11,4.32,9.01,7.7,14.71,10.12,5.69,2.43,12.02,3.64,18.97,3.64,6.53,0,12.6-1.21,18.18-3.64,5.58-2.42,10.49-5.85,14.71-10.28,4.21-4.43,7.59-9.49,10.12-15.18s3.79-11.8,3.79-18.34-1.26-12.65-3.79-18.34Z"/>
    <path class="cls-2" d="M1226.74,193.77l39.21,111h.63l39.21-111h39.21l-89.5,223.9h-37.63l30.04-73.05-60.09-150.85h38.9Z"/>
    <path class="cls-2" d="M1380.12,136.85h38.27l61.04,154.96h.63l61.04-154.96h37.95l18.66,208.09h-36.05l-6.33-70.84-5.06-76.85-.63-1.26-52.81,142.94h-33.84l-53.45-141.68-.63-1.26-4.74,78.11-6.33,70.84h-36.05l18.34-208.09Z"/>
    <path class="cls-2" d="M1646.4,240.89l-19.92-23.4c2.32-2.74,5.58-5.64,9.8-8.7,4.21-3.05,9.12-5.95,14.71-8.7,5.58-2.74,11.91-5.01,18.98-6.8,7.06-1.79,14.49-2.69,22.29-2.69,9.49,0,18.18,1.27,26.09,3.8,7.91,2.53,14.81,6.32,20.71,11.38,5.9,5.06,10.49,11.38,13.76,18.97,3.27,7.59,4.9,16.34,4.9,26.25v93.93h-30.04l-2.21-21.19c-2.96,3.79-6.17,7.17-9.65,10.12-3.48,2.96-7.27,5.48-11.38,7.59-4.11,2.11-8.65,3.69-13.6,4.74-4.96,1.05-10.28,1.58-15.97,1.58-7.59,0-14.55-1.16-20.87-3.48s-11.7-5.53-16.13-9.65-7.86-8.96-10.28-14.55c-2.43-5.58-3.64-11.65-3.64-18.18s1.42-12.97,4.27-18.66c2.85-5.69,7.06-10.59,12.65-14.71,5.58-4.11,12.54-7.32,20.87-9.65,8.33-2.32,17.97-3.48,28.94-3.48h33.52v-2.85c0-10.33-2.74-18.13-8.22-23.4-5.49-5.27-13.71-7.91-24.67-7.91-5.06,0-9.8.63-14.23,1.9-4.43,1.26-8.59,2.85-12.49,4.74-3.9,1.9-7.38,4.01-10.44,6.33-3.06,2.32-5.64,4.54-7.75,6.64ZM1724.19,278.84h-30.68c-11.6-.21-20.08,1.74-25.46,5.85-5.38,4.11-8.06,9.23-8.06,15.34,0,2.53.52,5.01,1.58,7.43,1.05,2.43,2.63,4.59,4.74,6.48,2.1,1.9,4.69,3.43,7.75,4.59,3.05,1.16,6.69,1.74,10.91,1.74,5.06,0,9.96-.89,14.71-2.69,4.74-1.79,8.9-4.37,12.49-7.75,3.58-3.37,6.48-7.43,8.7-12.18,2.21-4.74,3.32-9.96,3.32-15.65v-3.16Z"/>
    <path class="cls-2" d="M1827.29,344.94h-34.79v-151.17h29.73l1.58,24.67c3.16-5.06,6.69-9.65,10.59-13.76,3.9-4.11,8.33-7.32,13.28-9.65,4.95-2.32,10.28-3.74,15.97-4.27,5.69-.52,11.8.37,18.34,2.69l-.32,33.84c-7.59-2.53-14.66-3.32-21.19-2.37-6.54.95-12.28,3.22-17.24,6.8-4.96,3.59-8.85,8.49-11.7,14.71-2.85,6.22-4.27,13.44-4.27,21.66v76.85Z"/>
    <path class="cls-2" d="M1924.38,193.77l7.59-41.11h26.88v41.11h45.22v29.09h-45.22v68.31c0,7.17.89,12.6,2.69,16.29,1.79,3.69,4.48,6.22,8.06,7.59,3.58,1.37,8.22,1.79,13.92,1.27,5.69-.52,12.54-1.74,20.56-3.64v29.73c-12.86,3.79-24.25,5.69-34.15,5.69s-18.29-1.69-25.14-5.06c-6.85-3.37-11.97-8.27-15.34-14.71-3.38-6.43-5.06-14.28-5.06-23.56v-81.91h-26.88v-29.09h26.88Z"/>
  </g>
  <path class="cls-1" d="M377.29,333.76l-23.29-159.59c-3.26-22.21-18.1-41.62-38.69-50.74l-6.61-2.93v40.16l1.37,1.37c4.77,4.87,7.75,10.82,8.69,17.24l23.29,159.69c1.28,8.69-1.32,17.48-7.13,24.1-5.67,6.66-14.03,10.49-22.91,10.49H103.04c-8.88,0-17.24-3.83-22.96-10.49-5.76-6.61-8.36-15.4-7.09-24.1l23.29-159.74c1.8-12.71,11.81-22.87,24.14-25.28v31.09c0,48,39.07,87.07,87.12,87.07,42,0,78-29.91,85.61-71.06.94-5.01,1.46-10.39,1.46-16.02v-77.15c0-11.62-2.27-22.96-6.76-33.73-13.7-32.41-45.26-53.34-80.32-53.34-48.05,0-87.12,39.07-87.12,87.07v10.16c-30,2.65-55.14,26.03-59.39,56.13l-23.24,159.59c-2.74,18.99,2.88,38.17,15.35,52.63,12.47,14.46,30.66,22.73,49.89,22.73h208.97c19.23,0,37.42-8.27,49.89-22.73,12.47-14.55,18.1-33.73,15.4-52.63ZM156.05,153.33h70.47v-35.62h-70.47v-9.83c0-28.39,23.1-51.5,51.5-51.5,16.91,0,32.69,8.36,42.28,22.3,6,8.69,9.17,18.8,9.17,29.2v77.15c0,4.77-.61,9.4-1.89,13.84-6.14,22.16-26.51,37.65-49.56,37.65-28.39,0-51.5-23.1-51.5-51.5v-31.7Z"/>
</svg>